<svg id="svg" version="1.1" xmlns="http://www.w3.org/2000/svg" xmlns:xlink="http://www.w3.org/1999/xlink" width="400" height="400" viewBox="0, 0, 400,400"><g id="svgg"><path id="path0" d="M14.800 144.400 C 15.583 144.906,16.400 144.906,16.400 144.400 C 16.400 144.180,15.905 144.003,15.300 144.006 C 14.443 144.011,14.332 144.098,14.800 144.400 M17.800 145.200 C 17.936 145.420,18.307 145.600,18.624 145.600 C 18.941 145.600,19.200 145.420,19.200 145.200 C 19.200 144.980,18.829 144.800,18.376 144.800 C 17.923 144.800,17.664 144.980,17.800 145.200 M23.200 146.553 C 23.200 146.908,24.818 147.094,25.023 146.762 C 25.146 146.563,24.787 146.400,24.224 146.400 C 23.661 146.400,23.200 146.469,23.200 146.553 M30.000 148.400 C 30.000 148.620,30.259 148.800,30.576 148.800 C 30.893 148.800,31.264 148.620,31.400 148.400 C 31.536 148.180,31.277 148.000,30.824 148.000 C 30.371 148.000,30.000 148.180,30.000 148.400 M56.200 155.200 C 56.336 155.420,56.707 155.600,57.024 155.600 C 57.341 155.600,57.600 155.420,57.600 155.200 C 57.600 154.980,57.229 154.800,56.776 154.800 C 56.323 154.800,56.064 154.980,56.200 155.200 M34.062 155.775 C 34.138 156.142,34.380 156.433,34.600 156.421 C 35.194 156.390,35.085 155.495,34.462 155.287 C 34.125 155.175,33.975 155.358,34.062 155.775 M45.884 164.000 C 45.753 164.500,45.872 164.800,46.200 164.800 C 46.528 164.800,46.647 164.500,46.516 164.000 C 46.401 163.560,46.259 163.200,46.200 163.200 C 46.141 163.200,45.999 163.560,45.884 164.000 M47.606 163.500 C 47.619 164.128,48.227 164.679,48.900 164.673 C 49.719 164.666,49.789 164.349,49.120 163.680 C 48.588 163.148,47.597 163.030,47.606 163.500 M51.520 163.680 C 51.893 164.053,52.107 164.053,52.480 163.680 C 52.853 163.307,52.747 163.200,52.000 163.200 C 51.253 163.200,51.147 163.307,51.520 163.680 M181.400 164.433 C 168.985 166.569,163.753 171.817,163.308 182.584 C 162.866 193.278,167.005 198.299,182.600 205.983 C 192.318 210.772,194.400 212.645,194.400 216.600 C 194.400 221.225,190.594 224.084,184.400 224.114 C 176.813 224.150,174.606 221.553,172.983 210.679 C 172.693 208.738,172.447 208.664,167.804 209.120 C 162.936 209.598,163.342 208.932,162.645 217.579 C 161.965 226.018,161.815 225.309,164.538 226.555 C 178.499 232.941,196.240 231.942,203.970 224.335 C 208.370 220.005,210.508 211.037,208.440 205.580 C 205.931 198.957,201.857 195.166,192.504 190.749 C 182.782 186.157,181.576 185.524,179.636 183.991 C 172.925 178.686,175.703 170.845,184.304 170.811 C 190.707 170.786,193.484 173.816,195.385 182.900 C 195.658 184.204,197.411 184.363,201.200 183.429 C 204.984 182.496,204.688 183.152,204.514 176.082 C 204.290 166.965,204.671 167.472,196.600 165.570 C 191.141 164.284,184.959 163.821,181.400 164.433 M304.200 164.445 C 291.755 166.254,282.911 172.414,278.527 182.327 C 273.825 192.959,275.140 208.434,281.533 217.698 C 291.297 231.845,312.580 235.126,328.100 224.877 C 331.105 222.892,331.162 222.754,329.926 220.438 C 328.899 218.514,328.882 218.511,326.240 219.779 C 314.177 225.569,302.308 223.027,296.847 213.483 C 290.404 202.221,291.496 181.619,298.925 174.295 C 301.832 171.429,303.879 170.654,308.600 170.632 C 315.752 170.598,318.929 173.602,320.134 181.535 L 320.600 184.600 322.770 184.723 C 323.964 184.791,325.696 184.624,326.618 184.352 L 328.295 183.856 328.546 179.428 C 328.683 176.993,328.909 173.633,329.047 171.963 L 329.297 168.926 327.554 168.228 C 319.110 164.850,310.744 163.494,304.200 164.445 M365.600 164.477 C 352.683 166.294,342.443 174.343,339.239 185.200 C 338.946 186.190,338.565 187.450,338.392 188.000 C 336.062 195.393,337.481 206.879,341.727 214.998 C 350.240 231.273,374.775 235.962,390.775 224.372 C 392.578 223.066,392.704 222.562,391.737 220.524 C 390.833 218.619,390.527 218.582,387.449 220.007 C 375.062 225.740,363.217 222.751,358.100 212.600 C 353.240 202.960,353.113 187.816,357.811 178.213 C 363.516 166.553,380.058 168.202,381.756 180.600 C 382.363 185.031,382.202 184.800,384.685 184.800 C 390.110 184.800,390.241 184.627,390.597 177.000 C 390.730 174.140,390.876 171.177,390.920 170.416 C 391.021 168.669,388.114 167.249,381.000 165.569 C 375.144 164.186,370.173 163.834,365.600 164.477 M216.000 167.324 C 216.000 170.316,216.429 170.993,218.698 171.586 C 222.971 172.703,223.000 172.871,223.000 196.800 C 223.000 221.931,222.906 222.515,218.671 223.621 C 216.447 224.202,216.000 224.897,216.000 227.776 L 216.000 230.200 241.500 230.082 C 255.525 230.017,267.197 229.898,267.438 229.818 C 267.679 229.738,267.993 228.298,268.135 226.618 C 268.277 224.938,268.872 221.401,269.458 218.758 C 270.687 213.213,270.750 213.389,267.085 212.047 C 263.662 210.795,262.881 210.898,262.152 212.700 C 258.432 221.895,254.632 224.623,246.591 223.872 C 239.480 223.208,239.233 222.318,239.214 197.233 C 239.196 173.418,239.353 172.580,244.080 171.316 C 246.042 170.792,246.385 170.049,246.396 166.300 L 246.400 164.800 231.200 164.800 L 216.000 164.800 216.000 167.324 M68.500 165.476 C 68.885 165.576,69.515 165.576,69.900 165.476 C 70.285 165.375,69.970 165.293,69.200 165.293 C 68.430 165.293,68.115 165.375,68.500 165.476 M42.800 169.600 C 42.800 169.820,42.980 170.000,43.200 170.000 C 43.420 170.000,43.600 170.270,43.600 170.600 C 43.600 170.930,43.758 171.200,43.951 171.200 C 44.144 171.200,44.526 170.930,44.800 170.600 C 45.216 170.099,45.158 170.000,44.449 170.000 C 43.982 170.000,43.600 169.820,43.600 169.600 C 43.600 169.380,43.420 169.200,43.200 169.200 C 42.980 169.200,42.800 169.380,42.800 169.600 M52.800 172.800 C 52.312 173.115,52.364 173.189,53.076 173.194 C 53.558 173.197,54.064 173.020,54.200 172.800 C 54.515 172.291,53.588 172.291,52.800 172.800 M48.954 179.775 C 48.827 180.106,48.465 180.246,48.101 180.107 C 47.683 179.946,47.567 180.022,47.758 180.332 C 48.323 181.247,50.894 180.923,50.400 180.000 C 49.898 179.062,49.266 178.963,48.954 179.775 M51.800 180.000 C 52.893 180.469,53.200 180.469,53.200 180.000 C 53.200 179.780,52.705 179.613,52.100 179.628 C 51.125 179.653,51.091 179.695,51.800 180.000 M56.000 180.776 C 56.000 181.229,56.180 181.600,56.400 181.600 C 56.620 181.600,56.800 181.341,56.800 181.024 C 56.800 180.707,56.620 180.336,56.400 180.200 C 56.180 180.064,56.000 180.323,56.000 180.776 M61.400 180.800 C 62.512 181.278,63.600 181.278,63.600 180.800 C 63.600 180.580,62.925 180.413,62.100 180.428 C 60.897 180.451,60.758 180.524,61.400 180.800 M78.400 183.176 C 78.400 183.873,79.077 183.978,79.841 183.400 C 80.560 182.856,80.542 182.825,79.500 182.813 C 78.895 182.806,78.400 182.969,78.400 183.176 M80.800 199.200 C 80.800 199.420,81.171 199.600,81.624 199.600 C 82.077 199.600,82.336 199.420,82.200 199.200 C 82.064 198.980,81.693 198.800,81.376 198.800 C 81.059 198.800,80.800 198.980,80.800 199.200 M122.200 205.170 C 122.640 205.346,123.810 205.357,124.800 205.195 C 126.537 204.910,126.510 204.899,124.000 204.875 C 122.324 204.859,121.684 204.964,122.200 205.170 M94.307 207.090 C 95.026 207.179,96.106 207.177,96.707 207.086 C 97.308 206.995,96.720 206.922,95.400 206.924 C 94.080 206.926,93.588 207.001,94.307 207.090 M136.105 215.087 C 136.714 215.179,137.614 215.177,138.105 215.082 C 138.597 214.987,138.100 214.911,137.000 214.914 C 135.900 214.917,135.497 214.995,136.105 215.087 M129.301 242.200 C 129.305 243.080,129.387 243.393,129.483 242.895 C 129.579 242.398,129.575 241.678,129.475 241.295 C 129.375 240.913,129.296 241.320,129.301 242.200 " stroke="none" fill="#76797d" fill-rule="evenodd"></path><path id="path1" d="M0.000 200.000 L 0.000 400.000 200.000 400.000 L 400.000 400.000 400.000 200.000 L 400.000 0.000 200.000 0.000 L 0.000 0.000 0.000 200.000 M6.400 140.681 C 7.098 140.927,9.202 141.505,11.200 142.000 C 11.970 142.191,13.320 142.551,14.200 142.800 C 15.080 143.049,16.430 143.404,17.200 143.589 C 17.970 143.774,20.310 144.378,22.400 144.931 C 24.490 145.485,28.360 146.505,31.000 147.197 C 35.484 148.373,37.347 148.865,47.200 151.470 C 49.290 152.023,51.630 152.626,52.400 152.811 C 53.170 152.996,54.520 153.351,55.400 153.600 C 56.280 153.849,57.630 154.207,58.400 154.395 C 59.170 154.583,61.195 155.111,62.900 155.568 C 64.605 156.026,67.395 156.774,69.100 157.232 C 70.805 157.689,72.830 158.212,73.600 158.395 C 74.370 158.577,77.430 159.374,80.400 160.166 C 86.206 161.714,95.392 164.131,102.800 166.060 C 108.915 167.653,109.661 167.857,110.600 168.197 C 116.027 170.160,118.383 172.567,122.440 180.291 C 124.476 184.167,124.531 184.044,120.993 183.591 C 119.457 183.395,116.040 182.963,113.400 182.632 C 103.994 181.452,97.431 180.599,93.200 180.007 C 90.688 179.656,88.233 179.344,80.600 178.407 C 76.111 177.855,72.569 177.365,69.154 176.821 C 67.699 176.590,65.909 176.400,65.178 176.400 C 64.447 176.400,62.847 176.225,61.624 176.011 C 60.401 175.797,57.780 175.426,55.800 175.187 C 47.815 174.223,44.726 173.177,37.996 169.160 C 25.827 161.896,15.482 154.007,7.500 145.904 C 2.266 140.591,1.955 139.114,6.400 140.681 M191.669 164.021 C 192.841 164.253,194.700 164.620,195.800 164.837 C 203.515 166.356,204.536 167.131,204.862 171.717 C 205.480 180.378,205.327 182.654,204.100 183.122 C 198.892 185.106,194.800 185.011,194.800 182.905 C 194.800 181.834,194.180 179.551,193.551 178.305 C 193.358 177.923,193.200 177.416,193.200 177.177 C 193.200 174.702,188.150 171.200,184.581 171.200 C 174.173 171.200,173.596 180.910,183.705 185.922 C 187.054 187.583,195.658 191.600,195.865 191.600 C 196.606 191.600,203.433 196.756,204.942 198.456 C 213.492 208.083,210.591 222.900,199.090 228.344 C 194.327 230.599,186.450 232.041,182.152 231.445 C 181.078 231.296,178.940 231.007,177.400 230.802 C 172.526 230.152,169.775 229.369,164.511 227.130 C 161.332 225.778,160.953 225.239,161.550 222.920 C 161.765 222.084,162.065 218.758,162.217 215.529 C 162.540 208.683,162.227 209.073,167.800 208.579 C 173.610 208.064,173.075 207.705,173.811 212.608 C 175.072 221.007,177.570 223.600,184.400 223.600 C 190.148 223.600,194.000 220.811,194.000 216.649 C 194.000 213.098,191.646 211.072,182.021 206.338 C 172.461 201.637,169.473 199.512,166.000 194.946 C 161.593 189.152,161.429 178.326,165.654 172.136 C 167.575 169.319,173.471 165.200,175.580 165.200 C 175.817 165.200,176.323 165.036,176.705 164.835 C 178.807 163.730,187.740 163.244,191.669 164.021 M316.800 164.390 C 318.010 164.634,319.587 164.936,320.304 165.061 C 321.021 165.186,321.706 165.449,321.827 165.644 C 321.948 165.840,322.476 166.000,323.000 166.000 C 323.524 166.000,324.064 166.180,324.200 166.400 C 324.336 166.620,324.701 166.800,325.012 166.800 C 325.322 166.800,326.590 167.264,327.829 167.830 L 330.082 168.861 329.859 170.530 C 329.737 171.449,329.533 174.180,329.406 176.600 C 328.952 185.259,329.222 184.866,323.346 185.409 C 320.019 185.716,320.193 185.882,319.632 181.845 C 318.186 171.454,308.941 167.519,300.347 173.638 C 291.834 179.699,290.735 203.447,298.441 214.800 C 300.786 218.256,301.920 219.120,307.536 221.738 C 308.732 222.295,317.919 222.279,319.448 221.717 C 320.081 221.484,321.410 221.053,322.400 220.760 C 323.390 220.467,325.163 219.726,326.341 219.114 C 329.065 217.696,328.980 217.683,330.183 219.735 C 331.873 222.619,331.652 223.258,328.166 225.546 C 308.990 238.134,282.836 229.802,276.860 209.200 C 272.711 194.895,275.887 180.421,284.934 172.400 C 288.091 169.601,288.608 169.201,289.067 169.200 C 289.323 169.200,289.593 169.064,289.667 168.898 C 289.856 168.470,294.692 166.150,296.600 165.572 C 297.480 165.305,298.470 164.989,298.800 164.869 C 302.095 163.672,311.941 163.410,316.800 164.390 M376.576 164.037 C 380.427 164.731,386.034 166.250,388.200 167.187 C 388.640 167.377,389.601 167.773,390.335 168.066 L 391.669 168.600 391.433 171.400 C 391.302 172.940,391.085 176.424,390.948 179.141 L 390.701 184.082 389.450 184.594 C 388.763 184.875,386.823 185.231,385.140 185.383 L 382.079 185.661 381.640 183.611 C 381.398 182.483,381.200 181.027,381.200 180.375 C 381.200 179.723,381.035 178.877,380.834 178.495 C 380.632 178.113,380.168 177.113,379.802 176.274 C 375.577 166.575,359.764 170.707,356.739 182.300 C 356.553 183.015,356.214 184.275,355.986 185.100 C 354.845 189.237,354.825 200.071,355.949 204.600 C 356.168 205.480,356.518 206.869,356.728 207.686 C 358.283 213.746,363.073 219.217,368.829 221.509 C 370.513 222.179,375.612 222.463,378.400 222.041 C 383.271 221.305,383.445 221.252,387.717 219.180 C 390.762 217.704,390.823 217.722,392.365 220.512 C 393.487 222.543,393.443 222.793,391.703 224.308 C 386.041 229.235,373.312 232.561,365.424 231.174 C 358.981 230.041,358.869 230.008,354.664 228.048 C 343.052 222.633,336.232 210.155,336.927 195.595 C 337.242 189.004,337.933 186.069,340.327 181.159 C 343.691 174.263,352.888 166.000,357.201 166.000 C 357.426 166.000,357.923 165.838,358.305 165.639 C 359.061 165.246,361.175 164.665,364.000 164.073 C 366.545 163.540,373.704 163.519,376.576 164.037 M247.122 166.066 C 247.389 169.266,246.367 171.264,244.081 172.009 C 239.892 173.374,240.000 172.721,240.000 196.757 C 240.000 221.748,240.072 222.112,245.249 223.210 C 252.856 224.825,257.900 221.699,261.242 213.300 C 262.384 210.430,262.488 210.327,263.971 210.606 C 268.923 211.535,272.760 214.189,270.854 215.367 C 270.664 215.484,270.394 216.260,270.256 217.090 C 270.117 217.921,269.827 219.500,269.611 220.600 C 269.395 221.700,269.030 224.130,268.799 226.000 C 268.568 227.870,268.282 229.715,268.163 230.100 C 267.959 230.757,266.351 230.800,241.773 230.800 L 215.600 230.800 215.606 227.700 C 215.613 224.016,215.685 223.883,218.000 223.243 C 222.439 222.015,222.802 220.054,222.797 197.316 C 222.792 174.510,222.421 172.718,217.523 171.838 C 216.630 171.677,215.967 171.301,215.847 170.886 C 215.668 170.269,215.440 165.448,215.554 164.695 C 215.579 164.528,222.665 164.438,231.300 164.495 L 247.000 164.600 247.122 166.066 M40.200 176.830 C 43.500 177.262,47.640 177.796,49.400 178.017 C 51.160 178.239,53.770 178.586,55.200 178.788 C 56.630 178.991,59.285 179.346,61.100 179.578 C 62.915 179.810,65.885 180.190,67.700 180.422 C 69.515 180.654,72.170 181.004,73.600 181.200 C 75.030 181.396,77.730 181.750,79.600 181.988 C 81.470 182.225,84.170 182.587,85.600 182.792 C 87.030 182.997,89.820 183.362,91.800 183.603 C 93.780 183.844,96.660 184.206,98.200 184.408 C 99.740 184.610,102.530 184.971,104.400 185.210 C 106.270 185.449,108.970 185.809,110.400 186.009 C 111.830 186.208,114.710 186.579,116.800 186.833 C 122.970 187.582,124.633 188.173,126.751 190.369 C 128.547 192.231,132.000 198.125,132.000 199.327 C 132.000 200.058,129.693 200.207,109.200 200.803 C 101.170 201.037,91.360 201.403,87.400 201.615 C 78.441 202.097,71.280 202.110,69.760 201.647 C 69.122 201.452,67.790 201.063,66.800 200.782 C 64.870 200.234,56.525 196.310,53.661 194.604 C 45.032 189.464,30.000 177.715,30.000 176.112 C 30.000 175.464,29.488 175.428,40.200 176.830 M132.966 204.210 C 134.848 205.104,138.221 210.769,137.233 211.379 C 136.905 211.582,128.230 213.531,123.600 214.441 C 122.610 214.636,120.990 214.977,120.000 215.199 C 119.010 215.421,117.300 215.781,116.200 216.000 C 115.100 216.219,113.480 216.560,112.600 216.759 C 108.565 217.668,105.447 218.340,101.500 219.148 C 100.565 219.340,98.360 219.824,96.600 220.224 C 91.429 221.400,84.086 221.122,80.200 219.604 C 79.760 219.432,78.590 219.058,77.600 218.774 C 76.610 218.489,75.620 218.146,75.400 218.011 C 75.180 217.877,74.280 217.524,73.400 217.227 C 66.034 214.742,52.795 207.263,54.900 206.777 C 54.955 206.764,59.050 206.587,64.000 206.383 C 75.208 205.921,88.223 205.343,100.200 204.775 C 128.088 203.453,131.255 203.399,132.966 204.210 M139.523 214.699 C 146.863 224.543,147.295 227.367,142.820 236.271 C 140.195 241.495,137.808 245.797,137.201 246.400 C 137.091 246.510,136.557 247.230,136.015 247.999 C 134.003 250.856,129.624 254.800,128.463 254.800 C 127.878 254.800,127.852 250.070,128.400 242.980 C 128.620 240.131,128.862 233.116,128.937 227.392 C 129.088 215.880,129.171 215.472,131.507 214.796 C 135.953 213.509,138.612 213.477,139.523 214.699 M126.204 219.553 C 126.068 221.009,125.580 223.730,125.121 225.600 C 124.378 228.628,123.937 229.867,122.275 233.600 C 120.003 238.704,115.411 243.689,110.843 246.010 C 106.755 248.087,106.226 247.765,107.204 243.800 C 107.584 242.260,108.468 238.570,109.169 235.600 C 113.346 217.890,113.067 218.298,121.790 217.166 C 123.545 216.939,125.048 216.685,125.130 216.604 C 125.944 215.790,126.431 217.128,126.204 219.553 M109.447 220.977 C 110.535 223.813,104.084 233.246,98.665 236.743 C 93.403 240.138,90.689 240.147,91.999 236.764 C 96.021 226.382,98.896 223.274,106.600 220.981 C 108.826 220.318,109.193 220.318,109.447 220.977 " stroke="none" fill="#fbfbfb" fill-rule="evenodd"></path><path id="path2" d="M3.200 140.780 C 3.200 143.065,16.801 155.020,28.740 163.228 C 37.051 168.942,46.291 174.032,48.259 173.980 C 48.667 173.970,47.920 173.544,46.600 173.034 C 36.868 169.273,18.121 156.104,7.912 145.858 C 2.655 140.581,2.598 140.021,7.468 141.437 C 8.673 141.787,9.757 141.976,9.877 141.856 C 9.997 141.737,9.578 141.526,8.947 141.387 C 8.316 141.248,7.350 140.985,6.800 140.801 C 4.368 139.990,3.200 139.983,3.200 140.780 M12.800 142.829 C 14.230 143.251,15.580 143.530,15.800 143.448 C 16.020 143.366,15.660 143.174,15.000 143.022 C 14.340 142.869,13.387 142.577,12.881 142.372 C 12.376 142.168,11.566 142.014,11.081 142.031 C 10.597 142.047,11.370 142.407,12.800 142.829 M17.400 144.000 C 18.596 144.514,19.595 144.514,18.800 144.000 C 18.470 143.787,17.840 143.622,17.400 143.634 L 16.600 143.656 17.400 144.000 M20.200 144.800 C 20.640 144.989,21.360 145.144,21.800 145.144 L 22.600 145.144 21.800 144.800 C 21.360 144.611,20.640 144.456,20.200 144.456 L 19.400 144.456 20.200 144.800 M23.400 145.600 C 23.840 145.789,24.560 145.944,25.000 145.944 L 25.800 145.944 25.000 145.600 C 24.560 145.411,23.840 145.256,23.400 145.256 L 22.600 145.256 23.400 145.600 M26.400 146.400 C 26.730 146.613,27.360 146.778,27.800 146.766 L 28.600 146.744 27.800 146.400 C 26.604 145.886,25.605 145.886,26.400 146.400 M29.400 147.200 C 29.840 147.389,30.560 147.544,31.000 147.544 L 31.800 147.544 31.000 147.200 C 30.560 147.011,29.840 146.856,29.400 146.856 L 28.600 146.856 29.400 147.200 M32.400 148.000 C 32.730 148.213,33.450 148.373,34.000 148.354 L 35.000 148.320 34.000 148.000 C 32.458 147.506,31.636 147.506,32.400 148.000 M35.302 148.635 C 35.521 148.854,36.561 149.156,40.000 149.995 C 40.770 150.183,42.750 150.696,44.400 151.136 C 53.801 153.640,56.930 154.403,57.102 154.231 C 57.208 154.125,56.778 153.925,56.147 153.786 C 55.516 153.647,54.730 153.436,54.400 153.316 C 54.070 153.197,53.170 152.959,52.400 152.788 C 51.031 152.482,47.307 151.511,39.540 149.433 C 35.522 148.358,34.909 148.242,35.302 148.635 M60.667 155.365 C 64.656 156.533,66.685 156.983,66.343 156.623 C 66.043 156.308,60.356 154.797,58.600 154.566 C 57.940 154.480,58.870 154.839,60.667 155.365 M67.400 157.200 C 67.840 157.389,68.560 157.544,69.000 157.544 L 69.800 157.544 69.000 157.200 C 68.560 157.011,67.840 156.856,67.400 156.856 L 66.600 156.856 67.400 157.200 M70.600 158.000 C 71.796 158.514,72.795 158.514,72.000 158.000 C 71.670 157.787,71.040 157.622,70.600 157.634 L 69.800 157.656 70.600 158.000 M73.400 158.800 C 74.584 159.309,75.987 159.309,75.200 158.800 C 74.870 158.587,74.150 158.422,73.600 158.434 C 72.684 158.454,72.667 158.485,73.400 158.800 M76.600 159.600 C 77.040 159.789,77.760 159.944,78.200 159.944 L 79.000 159.944 78.200 159.600 C 77.760 159.411,77.040 159.256,76.600 159.256 L 75.800 159.256 76.600 159.600 M79.257 160.177 C 79.557 160.492,85.244 162.003,87.000 162.234 C 87.660 162.320,86.730 161.961,84.933 161.435 C 80.944 160.267,78.915 159.817,79.257 160.177 M88.502 162.635 C 88.721 162.854,89.761 163.156,93.200 163.995 C 93.970 164.183,95.950 164.696,97.600 165.136 C 99.250 165.575,102.670 166.477,105.200 167.139 C 107.730 167.802,110.320 168.541,110.955 168.783 C 111.591 169.025,112.202 169.132,112.313 169.021 C 112.424 168.910,112.219 168.725,111.857 168.609 C 111.496 168.494,110.885 168.289,110.500 168.154 C 109.652 167.856,108.721 167.603,102.800 166.060 C 100.270 165.401,96.080 164.308,93.490 163.631 C 88.546 162.339,88.121 162.254,88.502 162.635 M180.476 163.940 C 179.968 164.083,182.364 164.200,185.800 164.200 C 189.236 164.200,191.632 164.083,191.124 163.940 C 190.616 163.797,188.220 163.680,185.800 163.680 C 183.380 163.680,180.984 163.797,180.476 163.940 M303.020 163.947 C 302.370 164.086,304.854 164.200,308.540 164.200 C 312.226 164.200,314.827 164.083,314.320 163.940 C 313.146 163.608,304.578 163.614,303.020 163.947 M364.876 163.940 C 364.368 164.083,366.854 164.200,370.400 164.200 C 373.946 164.200,376.432 164.083,375.924 163.940 C 375.416 163.797,372.930 163.680,370.400 163.680 C 367.870 163.680,365.384 163.797,364.876 163.940 M176.590 164.816 C 176.421 165.089,176.723 165.138,177.466 164.960 C 178.999 164.592,179.144 164.400,177.890 164.400 C 177.317 164.400,176.732 164.587,176.590 164.816 M193.233 164.547 C 193.325 164.628,194.120 164.804,195.000 164.938 C 196.115 165.107,196.358 165.071,195.800 164.819 C 195.032 164.471,192.890 164.244,193.233 164.547 M224.525 164.699 C 228.224 164.766,234.164 164.765,237.725 164.699 C 241.286 164.633,238.260 164.579,231.000 164.579 C 223.740 164.579,220.826 164.633,224.525 164.699 M246.360 164.730 C 246.779 165.023,246.864 165.710,246.695 167.461 C 246.530 169.183,246.572 169.540,246.854 168.814 C 247.410 167.386,247.127 164.696,246.400 164.501 C 245.899 164.366,245.892 164.404,246.360 164.730 M299.052 164.716 C 298.944 164.890,299.473 164.961,300.228 164.873 C 300.983 164.785,301.600 164.642,301.600 164.556 C 301.600 164.255,299.245 164.403,299.052 164.716 M316.033 164.543 C 316.125 164.622,316.920 164.797,317.800 164.932 C 318.890 165.099,319.209 165.055,318.800 164.795 C 318.253 164.446,315.645 164.209,316.033 164.543 M360.800 164.806 C 360.378 165.082,360.615 165.123,361.600 164.942 C 363.325 164.625,363.651 164.398,362.367 164.406 C 361.835 164.409,361.130 164.589,360.800 164.806 M378.033 164.543 C 378.125 164.621,378.830 164.801,379.600 164.942 C 380.585 165.123,380.822 165.082,380.400 164.806 C 379.858 164.450,377.637 164.203,378.033 164.543 M197.233 165.344 C 197.325 165.423,197.940 165.608,198.600 165.756 C 199.476 165.952,199.638 165.915,199.200 165.618 C 198.660 165.253,196.832 164.998,197.233 165.344 M320.600 165.600 C 321.701 166.073,322.092 166.073,321.800 165.600 C 321.664 165.380,321.158 165.213,320.676 165.228 C 319.831 165.255,319.829 165.269,320.600 165.600 M381.633 165.344 C 381.725 165.423,382.340 165.608,383.000 165.756 C 383.876 165.952,384.038 165.915,383.600 165.618 C 383.060 165.253,381.232 164.998,381.633 165.344 M215.670 168.667 C 215.591 170.541,215.888 171.600,216.492 171.600 C 216.759 171.600,216.753 171.426,216.476 171.092 C 216.245 170.813,215.984 169.778,215.897 168.792 L 215.740 167.000 215.670 168.667 M168.467 169.036 C 166.908 170.370,164.400 173.574,164.400 174.232 C 164.400 174.390,164.954 173.728,165.632 172.760 C 166.310 171.792,167.705 170.239,168.732 169.308 C 171.007 167.248,170.801 167.037,168.467 169.036 M204.510 172.000 C 204.501 174.090,204.625 176.970,204.786 178.400 L 205.078 181.000 205.097 178.200 C 205.107 176.660,204.983 173.780,204.821 171.800 L 204.527 168.200 204.510 172.000 M329.552 169.687 C 329.737 170.798,329.793 170.855,329.919 170.054 C 330.001 169.533,329.903 168.943,329.701 168.741 C 329.479 168.519,329.421 168.893,329.552 169.687 M114.440 170.442 C 116.949 172.213,118.430 173.995,120.597 177.856 C 121.641 179.716,122.572 181.161,122.666 181.067 C 122.872 180.861,121.190 177.768,119.352 174.973 C 117.967 172.867,115.574 170.442,114.104 169.656 C 112.507 168.801,112.677 169.198,114.440 170.442 M287.829 169.809 C 287.405 170.129,287.138 170.471,287.235 170.569 C 287.332 170.666,287.859 170.402,288.406 169.982 C 288.953 169.561,289.220 169.220,289.000 169.222 C 288.780 169.224,288.253 169.488,287.829 169.809 M347.028 172.044 C 345.799 173.168,344.411 174.653,343.945 175.344 C 343.373 176.191,343.602 176.035,344.649 174.865 C 345.502 173.911,347.010 172.431,348.000 171.577 C 348.990 170.723,349.680 170.019,349.532 170.012 C 349.385 170.005,348.258 170.920,347.028 172.044 M391.000 172.800 C 390.844 174.147,390.806 175.339,390.916 175.449 C 391.026 175.559,391.244 174.547,391.400 173.200 C 391.556 171.853,391.594 170.661,391.484 170.551 C 391.374 170.441,391.156 171.453,391.000 172.800 M183.300 171.087 C 183.905 171.178,184.895 171.178,185.500 171.087 C 186.105 170.995,185.610 170.920,184.400 170.920 C 183.190 170.920,182.695 170.995,183.300 171.087 M284.983 172.311 C 282.795 174.327,280.143 177.744,278.968 180.063 C 277.414 183.131,277.864 182.865,279.636 179.669 C 280.530 178.057,282.531 175.402,284.082 173.769 C 287.170 170.518,287.488 170.004,284.983 172.311 M305.900 171.082 C 306.395 171.178,307.205 171.178,307.700 171.082 C 308.195 170.987,307.790 170.909,306.800 170.909 C 305.810 170.909,305.405 170.987,305.900 171.082 M310.305 171.083 C 310.802 171.179,311.522 171.175,311.905 171.075 C 312.287 170.975,311.880 170.896,311.000 170.901 C 310.120 170.905,309.807 170.987,310.305 171.083 M366.446 171.163 C 366.107 171.378,366.651 171.432,367.846 171.304 C 368.921 171.188,369.875 171.028,369.967 170.947 C 370.329 170.628,366.965 170.835,366.446 171.163 M371.905 171.083 C 372.402 171.179,373.122 171.175,373.505 171.075 C 373.887 170.975,373.480 170.896,372.600 170.901 C 371.720 170.905,371.407 170.987,371.905 171.083 M302.146 172.202 C 301.041 172.753,299.700 173.689,299.168 174.283 L 298.200 175.362 299.600 174.218 C 300.370 173.588,301.900 172.662,303.000 172.160 C 304.100 171.657,304.810 171.236,304.579 171.223 C 304.347 171.210,303.252 171.651,302.146 172.202 M178.563 172.700 C 177.899 173.305,177.636 173.587,177.979 173.328 C 178.321 173.068,179.141 172.574,179.801 172.230 C 180.460 171.886,180.723 171.604,180.385 171.602 C 180.047 171.601,179.227 172.095,178.563 172.700 M189.722 172.791 C 190.755 173.446,191.604 174.121,191.609 174.291 C 191.614 174.461,191.989 175.050,192.444 175.600 C 193.500 176.879,192.983 175.807,191.720 174.100 C 191.191 173.384,190.237 172.529,189.599 172.200 C 187.661 171.197,187.730 171.528,189.722 172.791 M217.200 171.755 C 217.200 171.840,217.730 171.987,218.379 172.082 C 219.027 172.177,219.467 172.108,219.355 171.928 C 219.157 171.607,217.200 171.450,217.200 171.755 M242.100 172.396 C 241.385 172.832,240.800 173.303,240.800 173.443 C 240.800 173.583,241.068 173.475,241.396 173.203 C 241.724 172.931,242.669 172.467,243.496 172.172 C 244.390 171.853,244.676 171.629,244.200 171.619 C 243.760 171.610,242.815 171.960,242.100 172.396 M328.998 176.500 C 328.841 179.222,328.787 181.799,328.878 182.225 C 328.968 182.651,329.179 180.506,329.345 177.457 C 329.512 174.409,329.566 171.833,329.466 171.732 C 329.366 171.632,329.155 173.778,328.998 176.500 M363.600 172.444 C 363.050 172.898,362.826 173.153,363.101 173.010 C 365.406 171.819,365.726 171.606,365.200 171.611 C 364.870 171.615,364.150 171.989,363.600 172.444 M377.283 172.958 C 377.878 173.531,378.485 174.000,378.632 174.000 C 379.085 174.000,377.912 172.780,377.033 172.337 C 376.391 172.013,376.448 172.156,377.283 172.958 M315.200 172.522 C 315.200 172.592,315.763 173.179,316.450 173.825 C 317.325 174.648,317.547 174.748,317.191 174.159 C 316.751 173.433,315.200 172.157,315.200 172.522 M360.525 174.900 C 358.981 176.500,356.946 179.880,357.310 180.243 C 357.400 180.334,357.816 179.641,358.232 178.704 C 358.649 177.767,359.782 176.145,360.750 175.100 C 362.935 172.741,362.760 172.585,360.525 174.900 M50.000 174.400 C 50.550 174.576,51.810 174.717,52.800 174.714 L 54.600 174.708 53.000 174.377 C 50.782 173.918,48.549 173.935,50.000 174.400 M240.249 174.615 C 240.112 174.973,240.015 175.566,240.034 175.933 C 240.053 176.300,240.227 176.069,240.421 175.420 C 240.798 174.158,240.665 173.533,240.249 174.615 M55.800 175.200 C 56.460 175.368,57.810 175.506,58.800 175.507 L 60.600 175.508 59.000 175.177 C 58.120 174.995,56.770 174.857,56.000 174.870 L 54.600 174.895 55.800 175.200 M163.413 176.761 C 163.045 177.868,162.820 179.275,162.912 179.887 C 163.077 180.980,163.081 180.977,163.140 179.750 C 163.173 179.063,163.472 177.730,163.804 176.788 C 164.137 175.846,164.335 175.002,164.245 174.912 C 164.155 174.822,163.781 175.654,163.413 176.761 M222.297 178.000 C 222.415 179.650,222.576 181.075,222.656 181.167 C 222.922 181.475,222.709 177.413,222.394 176.200 C 222.212 175.497,222.172 176.242,222.297 178.000 M318.330 176.782 C 318.698 177.651,319.056 178.204,319.124 178.009 C 319.250 177.649,318.113 175.200,317.819 175.200 C 317.731 175.200,317.961 175.912,318.330 176.782 M30.000 176.129 C 30.000 177.717,45.130 189.530,53.661 194.602 C 58.332 197.380,66.933 201.213,68.400 201.171 C 68.730 201.162,67.547 200.631,65.770 199.992 C 56.500 196.654,38.156 184.519,31.600 177.387 L 30.600 176.299 33.600 176.550 C 41.296 177.193,42.066 177.209,38.400 176.646 C 31.646 175.609,30.000 175.508,30.000 176.129 M62.000 176.000 C 62.550 176.176,63.900 176.316,65.000 176.310 L 67.000 176.300 65.200 175.980 C 62.678 175.531,60.577 175.544,62.000 176.000 M68.600 176.800 C 69.260 176.968,70.610 177.104,71.600 177.103 L 73.400 177.100 71.600 176.780 C 70.610 176.603,69.260 176.467,68.600 176.477 L 67.400 176.495 68.600 176.800 M342.069 177.639 C 341.310 178.854,341.766 179.016,342.555 177.812 C 342.920 177.256,343.078 176.800,342.905 176.800 C 342.733 176.800,342.357 177.178,342.069 177.639 M42.045 177.373 C 42.179 177.510,43.754 177.797,45.545 178.011 C 47.335 178.225,50.285 178.591,52.100 178.825 C 53.915 179.058,56.660 179.411,58.200 179.608 C 59.740 179.805,62.395 180.154,64.100 180.383 C 80.526 182.592,85.725 183.225,86.153 183.068 C 86.592 182.908,85.793 182.777,79.400 181.964 C 77.640 181.740,75.030 181.396,73.600 181.200 C 72.170 181.004,69.560 180.661,67.800 180.438 C 61.506 179.640,57.760 179.151,55.200 178.791 C 46.476 177.566,41.734 177.055,42.045 177.373 M74.400 177.600 C 74.950 177.776,76.099 177.938,76.954 177.960 C 77.809 177.982,79.609 178.173,80.954 178.385 C 82.299 178.597,85.020 178.965,87.000 179.203 C 88.980 179.441,91.770 179.803,93.200 180.008 C 94.630 180.213,97.330 180.576,99.200 180.815 C 101.070 181.054,103.860 181.414,105.400 181.616 C 106.940 181.818,109.820 182.175,111.800 182.410 C 113.780 182.645,116.570 182.998,118.000 183.194 C 119.430 183.391,121.365 183.655,122.300 183.781 C 124.176 184.033,124.491 183.565,123.378 182.176 C 122.781 181.431,122.773 181.436,123.192 182.300 C 123.706 183.360,122.097 183.520,118.024 182.815 C 116.801 182.603,114.360 182.254,112.600 182.039 C 101.848 180.727,97.906 180.218,87.400 178.784 C 77.272 177.401,72.393 176.957,74.400 177.600 M239.785 196.800 C 239.785 207.470,239.837 211.835,239.900 206.500 C 239.963 201.165,239.963 192.435,239.900 187.100 C 239.837 181.765,239.785 186.130,239.785 196.800 M176.416 179.320 C 176.381 180.029,177.605 181.868,178.864 182.999 L 180.200 184.198 178.947 182.799 C 178.257 182.030,177.410 180.860,177.063 180.200 C 176.716 179.540,176.425 179.144,176.416 179.320 M319.496 181.046 C 319.612 182.121,319.772 183.075,319.853 183.167 C 320.172 183.529,319.965 180.165,319.637 179.646 C 319.422 179.307,319.368 179.851,319.496 181.046 M381.295 181.000 C 381.295 181.660,381.432 182.740,381.600 183.400 L 381.905 184.600 381.905 183.400 C 381.905 182.740,381.768 181.660,381.600 181.000 L 381.295 179.800 381.295 181.000 M390.470 182.039 C 390.414 183.512,390.221 183.964,389.500 184.312 C 389.005 184.551,388.791 184.758,389.024 184.773 C 390.196 184.848,390.853 183.754,390.697 181.985 L 390.540 180.200 390.470 182.039 M356.123 183.123 C 355.872 183.936,355.563 185.320,355.438 186.200 L 355.209 187.800 355.608 186.400 C 355.828 185.630,356.215 184.324,356.469 183.498 C 356.722 182.672,356.851 181.917,356.755 181.821 C 356.659 181.725,356.375 182.311,356.123 183.123 M194.832 183.286 C 194.814 183.663,195.205 184.168,195.700 184.408 C 196.463 184.778,196.504 184.765,195.965 184.322 C 195.616 184.035,195.225 183.530,195.096 183.200 C 194.907 182.714,194.857 182.730,194.832 183.286 M88.800 183.620 C 89.790 183.797,91.140 183.933,91.800 183.923 L 93.000 183.905 91.800 183.600 C 91.140 183.432,89.790 183.296,88.800 183.297 L 87.000 183.300 88.800 183.620 M328.121 184.039 C 327.880 184.280,326.719 184.617,325.541 184.789 C 323.778 185.045,323.655 185.109,324.840 185.150 C 326.468 185.206,328.800 184.506,328.800 183.961 C 328.800 183.489,328.654 183.506,328.121 184.039 M95.000 184.418 C 96.100 184.590,97.540 184.724,98.200 184.718 L 99.400 184.705 98.200 184.400 C 97.540 184.232,96.100 184.097,95.000 184.101 L 93.000 184.107 95.000 184.418 M198.105 184.287 C 198.714 184.379,199.614 184.377,200.105 184.282 C 200.597 184.187,200.100 184.111,199.000 184.114 C 197.900 184.117,197.497 184.195,198.105 184.287 M293.800 185.200 C 293.648 185.891,293.607 186.541,293.709 186.642 C 293.811 186.744,294.009 186.253,294.150 185.550 C 294.483 183.883,294.160 183.560,293.800 185.200 M101.000 185.200 C 101.660 185.368,103.010 185.506,104.000 185.507 L 105.800 185.508 104.200 185.177 C 103.320 184.995,101.970 184.857,101.200 184.870 L 99.800 184.895 101.000 185.200 M182.400 185.564 C 182.950 186.014,183.580 186.383,183.800 186.385 C 184.228 186.388,183.505 185.834,182.200 185.160 C 181.669 184.885,181.736 185.021,182.400 185.564 M276.600 185.600 C 276.450 186.073,276.417 186.550,276.527 186.660 C 276.637 186.770,276.850 186.473,277.000 186.000 C 277.150 185.527,277.183 185.050,277.073 184.940 C 276.963 184.830,276.750 185.127,276.600 185.600 M320.360 185.320 C 320.546 185.506,321.306 185.596,322.049 185.519 C 323.367 185.383,323.358 185.375,321.710 185.180 C 320.781 185.071,320.173 185.133,320.360 185.320 M382.000 185.280 C 382.000 185.456,382.630 185.600,383.400 185.600 C 384.170 185.600,384.800 185.530,384.800 185.444 C 384.800 185.358,384.170 185.214,383.400 185.124 C 382.630 185.034,382.000 185.104,382.000 185.280 M385.900 185.082 C 386.395 185.178,387.205 185.178,387.700 185.082 C 388.195 184.987,387.790 184.909,386.800 184.909 C 385.810 184.909,385.405 184.987,385.900 185.082 M107.400 186.023 C 108.280 186.205,109.630 186.344,110.400 186.331 L 111.800 186.308 110.200 185.977 C 109.320 185.795,107.970 185.656,107.200 185.669 L 105.800 185.692 107.400 186.023 M162.901 187.000 C 162.905 187.880,162.987 188.193,163.083 187.695 C 163.179 187.198,163.175 186.478,163.075 186.095 C 162.975 185.713,162.896 186.120,162.901 187.000 M113.800 186.823 C 114.680 187.005,115.940 187.144,116.600 187.131 C 117.644 187.111,117.592 187.065,116.200 186.777 C 115.320 186.595,114.060 186.456,113.400 186.469 C 112.356 186.489,112.408 186.535,113.800 186.823 M184.400 186.589 C 184.400 186.699,185.030 187.062,185.800 187.395 C 186.570 187.728,187.830 188.272,188.600 188.605 C 189.370 188.938,190.000 189.121,190.000 189.011 C 190.000 188.901,189.370 188.538,188.600 188.205 C 187.830 187.872,186.570 187.328,185.800 186.995 C 185.030 186.662,184.400 186.479,184.400 186.589 M337.849 187.415 C 337.712 187.773,337.618 188.456,337.641 188.933 C 337.667 189.481,337.803 189.286,338.010 188.403 C 338.360 186.916,338.265 186.333,337.849 187.415 M120.600 187.796 C 124.141 188.534,124.881 188.927,126.830 191.105 C 128.285 192.731,131.600 198.404,131.600 199.267 C 131.600 199.394,127.955 199.656,123.500 199.849 C 116.467 200.154,115.953 200.217,119.600 200.328 C 126.135 200.527,132.000 200.054,132.000 199.327 C 132.000 198.127,128.548 192.233,126.758 190.376 C 124.822 188.368,121.965 187.149,119.427 187.248 C 118.564 187.281,118.912 187.444,120.600 187.796 M293.057 189.100 C 292.729 191.082,292.773 198.586,293.123 200.561 C 293.275 201.419,293.400 198.854,293.400 194.861 C 293.400 186.856,293.407 186.979,293.057 189.100 M275.849 188.615 C 275.712 188.973,275.618 189.656,275.641 190.133 C 275.667 190.681,275.803 190.486,276.010 189.603 C 276.360 188.116,276.265 187.533,275.849 188.615 M354.686 191.700 C 354.562 193.515,354.593 196.440,354.753 198.200 C 355.000 200.896,355.049 200.377,355.065 194.900 C 355.087 187.580,355.010 186.931,354.686 191.700 M190.433 189.354 C 190.882 189.768,198.145 193.225,197.798 192.859 C 197.383 192.423,190.974 189.200,190.521 189.200 C 190.381 189.200,190.342 189.269,190.433 189.354 M163.632 190.320 C 163.596 190.898,164.707 193.200,165.021 193.200 C 165.131 193.200,164.971 192.705,164.665 192.100 C 164.360 191.495,164.009 190.730,163.886 190.400 C 163.736 189.997,163.653 189.971,163.632 190.320 M337.053 191.636 C 336.914 192.331,336.832 194.993,336.870 197.550 L 336.940 202.200 337.192 196.400 C 337.461 190.191,337.446 189.669,337.053 191.636 M275.017 195.300 C 274.879 196.895,274.924 199.010,275.117 200.000 C 275.406 201.478,275.474 200.959,275.500 197.100 C 275.537 191.718,275.378 191.128,275.017 195.300 M202.034 195.900 C 202.052 196.065,202.817 196.822,203.734 197.582 L 205.400 198.963 203.819 197.282 C 202.193 195.552,201.976 195.384,202.034 195.900 M168.200 197.549 C 169.887 199.370,174.710 203.024,175.018 202.715 C 175.118 202.616,174.254 201.926,173.100 201.183 C 171.945 200.440,170.010 198.930,168.800 197.827 C 166.739 195.950,166.701 195.932,168.200 197.549 M206.627 201.240 C 207.382 202.362,208.000 203.472,208.000 203.707 C 208.000 203.941,208.115 204.018,208.256 203.878 C 208.542 203.592,205.995 199.200,205.543 199.200 C 205.384 199.200,205.872 200.118,206.627 201.240 M97.800 200.800 L 93.800 201.045 98.600 201.074 C 101.240 201.089,105.920 200.976,109.000 200.821 L 114.600 200.539 108.200 200.547 C 104.680 200.551,100.000 200.665,97.800 200.800 M69.927 201.672 C 70.799 202.024,81.051 201.989,86.200 201.617 C 89.047 201.411,87.181 201.338,79.727 201.364 C 73.966 201.384,69.556 201.522,69.927 201.672 M355.462 203.800 C 355.596 204.680,355.772 205.475,355.853 205.567 C 356.156 205.910,355.929 203.768,355.581 203.000 C 355.329 202.442,355.293 202.685,355.462 203.800 M293.628 203.633 C 293.644 204.165,293.819 204.960,294.019 205.400 C 294.271 205.958,294.307 205.715,294.138 204.600 C 293.855 202.743,293.587 202.236,293.628 203.633 M116.400 204.036 C 112.550 204.203,105.260 204.535,100.200 204.775 C 88.223 205.343,75.208 205.921,64.000 206.383 C 59.050 206.587,54.955 206.764,54.900 206.777 C 52.795 207.263,66.034 214.742,73.400 217.227 C 74.280 217.524,75.180 217.877,75.400 218.011 C 75.620 218.146,76.610 218.489,77.600 218.774 C 78.590 219.058,79.760 219.432,80.200 219.604 C 84.086 221.122,91.429 221.400,96.600 220.224 C 98.360 219.824,100.520 219.348,101.400 219.166 C 106.036 218.207,107.135 217.974,108.600 217.643 C 109.480 217.444,111.176 217.081,112.369 216.838 C 114.377 216.427,115.480 216.000,114.530 216.000 C 114.308 216.000,111.533 216.562,108.363 217.249 C 105.193 217.936,101.790 218.655,100.800 218.846 C 99.810 219.038,98.190 219.378,97.200 219.602 C 86.184 222.094,74.496 218.936,56.863 208.702 C 54.434 207.292,54.829 207.200,65.101 206.775 C 70.105 206.568,78.430 206.206,83.600 205.971 C 117.234 204.442,130.549 203.949,131.836 204.185 C 133.323 204.458,134.300 205.466,135.955 208.432 C 137.491 211.186,137.499 211.055,135.759 211.381 C 134.967 211.530,134.414 211.747,134.531 211.864 C 134.900 212.233,137.245 211.547,137.452 211.009 C 137.807 210.084,134.371 204.877,132.966 204.210 C 131.550 203.539,128.593 203.507,116.400 204.036 M275.646 204.400 C 275.627 204.950,275.787 205.670,276.000 206.000 C 276.494 206.764,276.494 205.942,276.000 204.400 L 275.680 203.400 275.646 204.400 M208.644 205.400 C 208.973 206.871,209.202 207.190,209.194 206.167 C 209.191 205.745,209.005 205.130,208.782 204.800 C 208.485 204.362,208.448 204.524,208.644 205.400 M337.606 205.633 C 337.609 206.165,337.789 206.870,338.006 207.200 C 338.282 207.622,338.323 207.385,338.142 206.400 C 337.825 204.675,337.598 204.349,337.606 205.633 M356.244 207.000 C 356.573 208.471,356.802 208.790,356.794 207.767 C 356.791 207.345,356.605 206.730,356.382 206.400 C 356.085 205.962,356.048 206.124,356.244 207.000 M183.600 206.942 C 183.600 207.021,184.944 207.758,186.587 208.580 C 188.230 209.403,190.435 210.797,191.487 211.678 L 193.400 213.279 191.538 211.509 C 189.535 209.605,183.600 206.190,183.600 206.942 M276.412 208.000 C 276.412 208.330,276.587 208.870,276.800 209.200 C 277.145 209.733,277.188 209.733,277.188 209.200 C 277.188 208.870,277.013 208.330,276.800 208.000 C 276.455 207.467,276.412 207.467,276.412 208.000 M169.800 208.417 C 168.319 208.629,168.386 208.659,170.701 208.823 C 172.076 208.920,173.201 208.886,173.201 208.747 C 173.200 208.335,171.519 208.172,169.800 208.417 M163.300 209.288 C 162.527 209.661,162.409 210.009,162.463 211.761 L 162.526 213.800 162.763 211.800 C 162.982 209.950,163.105 209.764,164.400 209.323 C 165.200 209.050,165.457 208.847,165.000 208.850 C 164.560 208.852,163.795 209.049,163.300 209.288 M173.240 211.033 C 173.262 211.895,173.427 213.050,173.607 213.600 C 173.811 214.221,173.851 213.691,173.712 212.200 C 173.454 209.421,173.182 208.749,173.240 211.033 M357.200 209.897 C 357.200 210.551,359.154 214.066,359.925 214.800 C 360.486 215.333,360.507 215.333,360.115 214.800 C 359.873 214.470,359.118 213.125,358.437 211.811 C 357.757 210.497,357.200 209.636,357.200 209.897 M209.709 211.600 C 209.709 212.590,209.787 212.995,209.882 212.500 C 209.978 212.005,209.978 211.195,209.882 210.700 C 209.787 210.205,209.709 210.610,209.709 211.600 M263.200 210.800 C 263.750 210.976,264.560 211.120,265.000 211.120 C 265.633 211.120,265.592 211.054,264.800 210.800 C 264.250 210.624,263.440 210.480,263.000 210.480 C 262.367 210.480,262.408 210.546,263.200 210.800 M131.200 212.400 C 130.442 212.890,131.670 212.890,133.200 212.400 C 134.180 212.086,134.176 212.079,133.000 212.046 C 132.340 212.027,131.530 212.187,131.200 212.400 M127.400 213.200 L 126.600 213.544 127.400 213.532 C 127.840 213.526,128.650 213.376,129.200 213.200 L 130.200 212.880 129.200 212.868 C 128.650 212.862,127.840 213.011,127.400 213.200 M270.333 213.281 C 270.649 213.685,270.754 214.315,270.590 214.831 C 270.404 215.419,270.458 215.612,270.757 215.426 C 271.428 215.012,271.287 213.767,270.500 213.149 C 269.870 212.655,269.853 212.668,270.333 213.281 M297.363 213.929 C 297.684 214.550,298.260 215.315,298.642 215.629 C 299.034 215.952,298.849 215.461,298.215 214.500 C 296.932 212.555,296.504 212.268,297.363 213.929 M123.600 214.000 C 122.625 214.312,122.630 214.321,123.800 214.332 C 124.460 214.338,125.360 214.189,125.800 214.000 C 126.894 213.530,125.067 213.530,123.600 214.000 M135.200 213.986 C 133.977 214.256,134.114 214.301,136.290 214.347 L 138.779 214.400 141.132 217.900 C 147.071 226.738,146.630 230.688,138.212 244.038 C 137.221 245.611,136.435 247.649,137.314 246.367 C 144.052 236.544,147.030 227.400,144.846 223.240 C 143.941 221.515,140.556 216.085,139.523 214.699 C 138.896 213.857,137.116 213.564,135.200 213.986 M222.468 215.000 C 222.426 215.880,222.304 217.320,222.197 218.200 L 222.003 219.800 222.422 218.465 C 222.652 217.731,222.774 216.291,222.693 215.265 C 222.546 213.419,222.543 213.417,222.468 215.000 M118.002 215.112 C 116.354 215.455,115.253 215.818,115.556 215.919 C 116.089 216.096,119.560 215.446,121.600 214.787 C 123.284 214.242,121.346 214.417,118.002 215.112 M130.960 214.971 C 129.142 215.763,129.112 215.968,129.012 228.600 C 128.939 237.796,128.979 238.915,129.207 234.000 C 129.365 230.590,129.521 225.280,129.553 222.200 C 129.620 215.818,129.631 215.787,132.026 215.036 C 133.002 214.730,133.440 214.468,133.000 214.455 C 132.560 214.442,131.642 214.674,130.960 214.971 M174.006 215.833 C 174.009 216.255,174.195 216.870,174.418 217.200 C 174.715 217.638,174.752 217.476,174.556 216.600 C 174.227 215.129,173.998 214.810,174.006 215.833 M162.134 218.400 C 162.134 220.050,162.205 220.725,162.291 219.900 C 162.378 219.075,162.378 217.725,162.291 216.900 C 162.205 216.075,162.134 216.750,162.134 218.400 M208.846 216.067 C 208.821 216.434,208.696 217.064,208.570 217.467 C 208.352 218.162,208.363 218.163,208.797 217.487 C 209.048 217.096,209.173 216.466,209.073 216.087 C 208.911 215.468,208.888 215.466,208.846 216.067 M280.277 216.827 C 281.537 218.966,284.638 222.582,286.247 223.789 C 287.304 224.582,287.023 224.195,285.365 222.577 C 284.026 221.270,282.246 219.165,281.409 217.900 C 279.794 215.459,279.065 214.768,280.277 216.827 M361.259 216.711 C 361.765 217.321,362.724 218.252,363.389 218.779 C 364.055 219.306,363.707 218.807,362.615 217.669 C 360.449 215.411,359.807 214.958,361.259 216.711 M125.130 216.604 C 125.048 216.685,123.545 216.939,121.790 217.166 C 114.695 218.087,113.123 219.310,111.708 225.012 C 109.394 234.340,107.989 240.568,108.115 240.945 C 108.191 241.173,108.561 240.018,108.937 238.380 C 109.314 236.741,109.788 234.770,109.992 234.000 C 110.195 233.230,110.739 230.980,111.200 229.000 C 113.546 218.919,113.835 218.610,121.812 217.611 C 123.359 217.417,124.889 217.200,125.212 217.129 C 126.425 216.863,125.157 225.656,123.364 229.947 C 123.048 230.704,122.871 231.405,122.971 231.505 C 123.554 232.087,125.811 223.743,126.204 219.553 C 126.431 217.128,125.944 215.790,125.130 216.604 M300.378 217.704 C 301.137 218.527,301.914 219.200,302.107 219.200 C 302.473 219.200,302.139 218.854,300.182 217.204 C 299.162 216.344,299.188 216.412,300.378 217.704 M269.829 217.829 C 269.681 218.415,269.638 218.972,269.732 219.066 C 269.827 219.160,270.024 218.758,270.171 218.171 C 270.319 217.585,270.362 217.028,270.268 216.934 C 270.173 216.840,269.976 217.242,269.829 217.829 M240.006 218.033 C 240.009 218.565,240.189 219.270,240.406 219.600 C 240.682 220.022,240.723 219.785,240.542 218.800 C 240.225 217.075,239.998 216.749,240.006 218.033 M174.800 218.153 C 174.800 218.582,175.990 220.800,176.221 220.800 C 176.331 220.800,176.123 220.215,175.759 219.500 C 175.017 218.040,174.800 217.736,174.800 218.153 M327.823 218.363 C 327.700 218.562,327.920 218.641,328.312 218.539 C 328.823 218.405,329.278 218.801,329.913 219.931 C 330.772 221.459,331.112 223.589,330.500 223.611 C 330.335 223.617,329.570 224.173,328.800 224.848 L 327.400 226.074 329.300 224.769 C 331.546 223.227,331.704 222.330,330.183 219.735 C 329.218 218.088,328.317 217.564,327.823 218.363 M389.374 218.443 C 389.192 218.737,389.370 218.800,389.903 218.631 C 390.518 218.436,390.903 218.684,391.546 219.688 C 392.008 220.410,392.390 220.848,392.393 220.662 C 392.421 219.250,389.982 217.458,389.374 218.443 M257.260 220.242 C 256.962 220.578,256.799 220.932,256.895 221.029 C 256.992 221.126,257.398 220.844,257.798 220.402 C 258.197 219.961,258.361 219.607,258.162 219.615 C 257.963 219.624,257.557 219.905,257.260 220.242 M345.800 221.551 C 347.760 223.640,350.914 226.199,352.700 227.149 C 354.361 228.033,353.621 227.296,351.500 225.956 C 350.345 225.225,348.140 223.456,346.600 222.023 C 344.116 219.713,344.026 219.660,345.800 221.551 M106.600 220.981 C 105.720 221.243,104.640 221.596,104.200 221.767 C 103.760 221.937,103.149 222.154,102.843 222.248 C 102.536 222.342,102.365 222.499,102.463 222.597 C 102.561 222.694,103.954 222.330,105.559 221.787 C 109.267 220.533,109.311 220.537,109.031 222.100 C 108.824 223.253,108.849 223.301,109.250 222.522 C 110.223 220.634,109.390 220.150,106.600 220.981 M240.800 220.664 C 240.800 220.882,241.295 221.497,241.900 222.030 L 243.000 223.000 242.000 221.800 C 241.450 221.140,240.955 220.525,240.900 220.433 C 240.845 220.342,240.800 220.445,240.800 220.664 M269.022 221.822 C 268.872 222.625,268.828 223.362,268.926 223.460 C 269.024 223.557,269.227 222.981,269.378 222.178 C 269.528 221.375,269.572 220.638,269.474 220.540 C 269.376 220.443,269.173 221.019,269.022 221.822 M381.200 221.600 C 380.405 222.114,381.404 222.114,382.600 221.600 L 383.400 221.256 382.600 221.234 C 382.160 221.222,381.530 221.387,381.200 221.600 M392.531 221.763 C 392.677 222.145,392.588 222.850,392.333 223.329 C 391.914 224.116,391.933 224.147,392.535 223.651 C 393.305 223.015,393.412 221.778,392.732 221.358 C 392.413 221.161,392.349 221.291,392.531 221.763 M309.800 222.448 C 311.464 222.805,314.690 222.811,316.600 222.461 C 317.664 222.266,316.592 222.171,313.400 222.179 C 310.760 222.186,309.140 222.307,309.800 222.448 M371.677 222.460 C 372.861 222.794,377.044 222.783,378.600 222.443 C 379.260 222.298,377.765 222.184,375.277 222.190 C 372.790 222.195,371.170 222.317,371.677 222.460 M99.597 224.143 C 98.606 224.871,97.325 226.176,96.752 227.042 C 95.335 229.183,93.903 232.036,94.130 232.264 C 94.233 232.366,94.827 231.404,95.451 230.125 C 96.521 227.933,99.631 224.377,101.400 223.324 C 101.840 223.061,102.020 222.841,101.800 222.833 C 101.580 222.826,100.589 223.415,99.597 224.143 M203.800 224.885 C 202.293 226.428,202.117 226.715,203.084 226.051 C 204.127 225.334,206.400 222.750,205.927 222.818 C 205.857 222.829,204.900 223.758,203.800 224.885 M244.000 223.182 C 244.330 223.405,244.945 223.591,245.367 223.594 C 246.390 223.602,246.071 223.373,244.600 223.044 C 243.724 222.848,243.562 222.885,244.000 223.182 M251.000 223.200 C 249.911 223.477,249.893 223.507,250.800 223.525 C 251.350 223.535,252.160 223.389,252.600 223.200 C 253.586 222.776,252.666 222.776,251.000 223.200 M108.198 224.470 C 106.686 229.584,100.236 236.251,94.800 238.321 C 92.321 239.264,92.606 239.515,95.141 238.621 C 100.462 236.744,110.579 225.645,108.690 223.757 C 108.571 223.638,108.349 223.958,108.198 224.470 M183.305 223.887 C 183.914 223.979,184.814 223.977,185.305 223.882 C 185.797 223.787,185.300 223.711,184.200 223.714 C 183.100 223.717,182.697 223.795,183.305 223.887 M215.776 224.552 C 215.645 225.075,215.615 226.020,215.709 226.652 C 215.845 227.561,215.893 227.463,215.940 226.180 C 215.973 225.289,216.216 224.344,216.480 224.080 C 216.845 223.715,216.847 223.600,216.488 223.600 C 216.228 223.600,215.908 224.028,215.776 224.552 M390.000 225.236 C 389.336 225.779,389.269 225.915,389.800 225.640 C 391.105 224.966,391.828 224.412,391.400 224.415 C 391.180 224.417,390.550 224.786,390.000 225.236 M268.156 227.700 L 267.800 230.200 241.700 230.200 C 227.345 230.200,215.600 230.335,215.600 230.500 C 215.600 231.095,267.892 230.859,268.121 230.263 C 268.432 229.452,268.920 225.200,268.702 225.200 C 268.597 225.200,268.352 226.325,268.156 227.700 M162.104 226.034 C 163.217 226.682,165.600 227.630,165.600 227.424 C 165.600 227.220,162.052 225.593,161.649 225.612 C 161.512 225.619,161.717 225.809,162.104 226.034 M324.600 227.234 C 322.346 228.527,322.435 228.821,324.716 227.615 C 326.625 226.606,327.505 226.003,327.000 226.049 C 326.780 226.069,325.700 226.602,324.600 227.234 M387.500 226.629 C 386.005 227.440,386.096 227.778,387.600 227.000 C 388.260 226.659,388.800 226.294,388.800 226.190 C 388.800 225.932,388.757 225.947,387.500 226.629 M200.300 227.429 C 198.805 228.240,198.896 228.578,200.400 227.800 C 201.060 227.459,201.600 227.094,201.600 226.990 C 201.600 226.732,201.557 226.747,200.300 227.429 M166.400 228.000 C 166.730 228.213,167.270 228.388,167.600 228.388 C 168.133 228.388,168.133 228.345,167.600 228.000 C 167.270 227.787,166.730 227.612,166.400 227.612 C 165.867 227.612,165.867 227.655,166.400 228.000 M171.200 229.600 C 171.530 229.813,172.070 229.988,172.400 229.988 C 172.933 229.988,172.933 229.945,172.400 229.600 C 172.070 229.387,171.530 229.212,171.200 229.212 C 170.667 229.212,170.667 229.255,171.200 229.600 M174.600 230.400 C 175.040 230.589,175.760 230.738,176.200 230.732 C 176.843 230.723,176.804 230.657,176.000 230.400 C 174.632 229.962,173.581 229.962,174.600 230.400 M192.200 230.400 L 191.400 230.744 192.200 230.744 C 192.640 230.744,193.360 230.589,193.800 230.400 L 194.600 230.056 193.800 230.056 C 193.360 230.056,192.640 230.211,192.200 230.400 M299.200 230.400 C 299.530 230.613,300.160 230.778,300.600 230.766 L 301.400 230.744 300.600 230.400 C 299.404 229.886,298.405 229.886,299.200 230.400 M315.800 230.400 L 315.000 230.744 315.800 230.766 C 316.240 230.778,316.870 230.613,317.200 230.400 C 317.995 229.886,316.996 229.886,315.800 230.400 M361.000 230.400 C 361.440 230.589,362.160 230.738,362.600 230.732 C 363.243 230.723,363.204 230.657,362.400 230.400 C 361.032 229.962,359.981 229.962,361.000 230.400 M377.600 230.400 C 376.796 230.657,376.757 230.723,377.400 230.732 C 377.840 230.738,378.560 230.589,379.000 230.400 C 380.019 229.962,378.968 229.962,377.600 230.400 M180.403 231.243 C 181.744 231.616,185.827 231.623,187.800 231.256 C 188.871 231.057,187.748 230.959,184.403 230.962 C 181.655 230.964,179.855 231.090,180.403 231.243 M304.434 231.250 C 305.669 231.595,309.839 231.587,311.400 231.235 C 312.060 231.087,310.545 230.969,308.034 230.973 C 305.522 230.977,303.902 231.101,304.434 231.250 M366.055 231.255 C 367.352 231.619,371.063 231.617,373.000 231.252 C 374.088 231.047,373.083 230.957,369.855 230.970 C 367.246 230.981,365.536 231.109,366.055 231.255 M121.037 235.052 C 117.669 241.603,107.300 249.559,107.160 245.700 L 107.120 244.600 106.823 245.600 C 105.475 250.138,115.316 244.466,119.542 238.270 C 121.200 235.838,122.854 232.761,122.718 232.360 C 122.653 232.170,121.897 233.381,121.037 235.052 M93.259 233.645 C 93.059 234.170,92.601 235.303,92.242 236.161 C 91.883 237.020,91.656 237.790,91.738 237.871 C 91.820 237.953,92.368 236.911,92.956 235.556 C 93.543 234.200,93.934 233.001,93.823 232.890 C 93.713 232.779,93.459 233.119,93.259 233.645 M128.261 244.662 C 127.858 251.245,127.929 254.800,128.463 254.800 C 129.214 254.800,133.074 251.652,134.698 249.714 C 137.352 246.549,136.933 246.700,133.524 250.137 C 131.696 251.980,129.772 253.712,129.250 253.985 L 128.299 254.482 128.593 247.441 C 128.913 239.760,128.680 237.811,128.261 244.662 M107.422 242.729 C 107.258 243.459,107.222 244.156,107.342 244.276 C 107.643 244.577,108.120 242.556,107.899 241.917 C 107.801 241.633,107.586 241.998,107.422 242.729 " stroke="none" fill="#bec3c6" fill-rule="evenodd"></path><path id="path3" d="M215.693 166.000 C 215.693 166.770,215.775 167.085,215.876 166.700 C 215.976 166.315,215.976 165.685,215.876 165.300 C 215.775 164.915,215.693 165.230,215.693 166.000 M246.501 167.000 C 246.505 167.880,246.587 168.193,246.683 167.695 C 246.779 167.198,246.775 166.478,246.675 166.095 C 246.575 165.713,246.496 166.120,246.501 167.000 M307.900 170.682 C 308.395 170.778,309.205 170.778,309.700 170.682 C 310.195 170.587,309.790 170.509,308.800 170.509 C 307.810 170.509,307.405 170.587,307.900 170.682 M369.705 170.687 C 370.314 170.779,371.214 170.777,371.705 170.682 C 372.197 170.587,371.700 170.511,370.600 170.514 C 369.500 170.517,369.097 170.595,369.705 170.687 M360.575 174.500 L 359.400 175.800 360.700 174.625 C 361.415 173.979,362.000 173.394,362.000 173.325 C 362.000 173.016,361.670 173.288,360.575 174.500 M204.501 177.800 C 204.505 178.680,204.587 178.993,204.683 178.495 C 204.779 177.998,204.775 177.278,204.675 176.895 C 204.575 176.513,204.496 176.920,204.501 177.800 M390.520 178.400 C 390.520 179.610,390.595 180.105,390.687 179.500 C 390.778 178.895,390.778 177.905,390.687 177.300 C 390.595 176.695,390.520 177.190,390.520 178.400 M328.514 181.800 C 328.517 182.900,328.595 183.303,328.687 182.695 C 328.779 182.086,328.777 181.186,328.682 180.695 C 328.587 180.203,328.511 180.700,328.514 181.800 M162.928 183.200 C 162.928 184.630,163.001 185.215,163.089 184.500 C 163.178 183.785,163.178 182.615,163.089 181.900 C 163.001 181.185,162.928 181.770,162.928 183.200 M320.134 184.000 C 320.193 184.893,320.382 185.004,321.903 185.039 L 323.606 185.078 322.028 184.917 C 320.796 184.792,320.408 184.564,320.259 183.878 C 320.100 183.142,320.080 183.162,320.134 184.000 M354.493 197.200 C 354.493 197.970,354.575 198.285,354.676 197.900 C 354.776 197.515,354.776 196.885,354.676 196.500 C 354.575 196.115,354.493 196.430,354.493 197.200 M203.600 197.800 C 204.346 198.570,205.047 199.200,205.157 199.200 C 205.267 199.200,204.746 198.570,204.000 197.800 C 203.254 197.030,202.553 196.400,202.443 196.400 C 202.333 196.400,202.854 197.030,203.600 197.800 M239.309 210.800 C 239.309 211.790,239.387 212.195,239.482 211.700 C 239.578 211.205,239.578 210.395,239.482 209.900 C 239.387 209.405,239.309 209.810,239.309 210.800 M209.320 211.600 C 209.320 212.810,209.395 213.305,209.487 212.700 C 209.578 212.095,209.578 211.105,209.487 210.500 C 209.395 209.895,209.320 210.390,209.320 211.600 M162.520 215.600 C 162.520 216.810,162.595 217.305,162.687 216.700 C 162.778 216.095,162.778 215.105,162.687 214.500 C 162.595 213.895,162.520 214.390,162.520 215.600 M194.109 216.400 C 194.109 217.390,194.187 217.795,194.282 217.300 C 194.378 216.805,194.378 215.995,194.282 215.500 C 194.187 215.005,194.109 215.410,194.109 216.400 M283.600 220.925 C 283.600 220.994,284.185 221.579,284.900 222.225 L 286.200 223.400 285.025 222.100 C 283.930 220.888,283.600 220.616,283.600 220.925 M215.693 228.800 C 215.693 229.570,215.775 229.885,215.876 229.500 C 215.976 229.115,215.976 228.485,215.876 228.100 C 215.775 227.715,215.693 228.030,215.693 228.800 M233.516 230.297 C 234.899 230.375,237.059 230.374,238.316 230.295 C 239.572 230.216,238.440 230.152,235.800 230.153 C 233.160 230.153,232.132 230.218,233.516 230.297 M251.700 230.298 C 253.845 230.370,257.355 230.370,259.500 230.298 C 261.645 230.226,259.890 230.167,255.600 230.167 C 251.310 230.167,249.555 230.226,251.700 230.298 M183.305 231.087 C 183.914 231.179,184.814 231.177,185.305 231.082 C 185.797 230.987,185.300 230.911,184.200 230.914 C 183.100 230.917,182.697 230.995,183.305 231.087 M306.905 231.087 C 307.514 231.179,308.414 231.177,308.905 231.082 C 309.397 230.987,308.900 230.911,307.800 230.914 C 306.700 230.917,306.297 230.995,306.905 231.087 M368.505 231.087 C 369.114 231.179,370.014 231.177,370.505 231.082 C 370.997 230.987,370.500 230.911,369.400 230.914 C 368.300 230.917,367.897 230.995,368.505 231.087 " stroke="none" fill="#acacad" fill-rule="evenodd"></path><path id="path4" d="M4.741 142.326 C 5.969 143.876,10.891 148.788,13.800 151.367 C 14.680 152.147,15.634 152.701,15.921 152.597 C 16.207 152.494,16.347 152.562,16.232 152.748 C 15.810 153.430,33.657 166.800,34.989 166.800 C 35.136 166.800,36.008 167.315,36.928 167.945 C 38.952 169.330,43.972 171.996,46.284 172.913 C 47.873 173.543,52.108 174.272,59.400 175.171 C 61.160 175.388,65.390 175.927,68.800 176.370 C 72.210 176.813,77.160 177.444,79.800 177.772 C 88.910 178.907,91.408 179.249,93.691 179.677 C 94.950 179.912,96.719 179.987,97.620 179.843 C 98.620 179.683,99.167 179.729,99.024 179.961 C 98.892 180.175,99.794 180.444,101.095 180.578 C 102.363 180.708,104.570 180.987,106.000 181.197 C 107.430 181.408,110.400 181.781,112.600 182.027 C 114.800 182.273,117.464 182.638,118.520 182.837 C 120.970 183.300,123.200 183.303,123.200 182.842 C 123.200 180.634,115.367 170.097,114.089 170.587 C 113.797 170.699,113.657 170.632,113.777 170.437 C 114.058 169.983,112.862 169.515,112.302 169.861 C 112.065 170.007,111.992 169.936,112.139 169.699 C 112.297 169.443,111.515 168.996,110.165 168.571 C 108.257 167.971,107.876 167.951,107.570 168.434 C 107.248 168.944,107.033 168.673,107.150 167.907 C 107.175 167.746,106.701 167.505,106.098 167.371 C 105.494 167.237,104.418 166.951,103.706 166.735 C 102.995 166.519,102.027 166.464,101.556 166.614 C 100.991 166.793,100.790 166.739,100.966 166.455 C 101.123 166.200,100.775 165.927,100.116 165.788 C 98.680 165.484,98.014 165.317,94.500 164.376 C 88.770 162.843,85.715 162.038,80.400 160.664 C 77.430 159.897,73.248 158.799,71.106 158.225 C 68.952 157.648,66.717 157.278,66.106 157.397 C 65.349 157.544,65.230 157.511,65.729 157.291 C 66.277 157.049,65.762 156.789,63.658 156.243 C 62.118 155.844,60.665 155.636,60.429 155.782 C 60.193 155.928,60.000 155.876,60.000 155.667 C 60.000 155.057,57.918 154.686,57.578 155.235 C 57.398 155.526,56.988 155.598,56.540 155.415 C 55.830 155.126,55.831 155.102,56.579 154.824 C 57.687 154.412,55.824 153.928,54.452 154.273 C 53.792 154.439,53.569 154.374,53.757 154.070 C 54.114 153.492,52.344 153.037,51.179 153.407 C 50.595 153.592,50.389 153.541,50.566 153.255 C 50.723 153.000,50.374 152.725,49.716 152.584 C 49.102 152.452,48.187 152.177,47.681 151.972 C 46.473 151.483,45.489 151.497,45.800 152.000 C 45.938 152.223,45.639 152.397,45.124 152.394 C 44.453 152.389,44.349 152.294,44.743 152.044 C 45.407 151.623,45.009 151.354,42.965 150.839 C 42.104 150.623,40.770 150.270,40.000 150.056 C 38.287 149.580,32.086 147.936,27.100 146.635 C 25.065 146.104,20.559 144.923,17.088 144.012 C 13.430 143.051,10.402 142.459,9.888 142.603 C 9.289 142.771,9.171 142.733,9.526 142.487 C 9.891 142.233,9.216 141.918,7.326 141.459 C 3.495 140.530,3.356 140.577,4.741 142.326 M16.400 144.400 C 16.400 144.906,15.583 144.906,14.800 144.400 C 14.332 144.098,14.443 144.011,15.300 144.006 C 15.905 144.003,16.400 144.180,16.400 144.400 M19.200 145.200 C 19.200 145.420,18.941 145.600,18.624 145.600 C 18.307 145.600,17.936 145.420,17.800 145.200 C 17.664 144.980,17.923 144.800,18.376 144.800 C 18.829 144.800,19.200 144.980,19.200 145.200 M25.023 146.762 C 24.900 146.962,24.439 147.031,24.000 146.916 C 22.899 146.628,22.998 146.400,24.224 146.400 C 24.787 146.400,25.146 146.563,25.023 146.762 M31.400 148.400 C 31.264 148.620,30.893 148.800,30.576 148.800 C 30.259 148.800,30.000 148.620,30.000 148.400 C 30.000 148.180,30.371 148.000,30.824 148.000 C 31.277 148.000,31.536 148.180,31.400 148.400 M35.000 155.933 C 35.000 156.657,34.217 156.525,34.062 155.775 C 33.975 155.358,34.125 155.175,34.462 155.287 C 34.758 155.386,35.000 155.677,35.000 155.933 M46.516 164.000 C 46.647 164.500,46.528 164.800,46.200 164.800 C 45.872 164.800,45.753 164.500,45.884 164.000 C 45.999 163.560,46.141 163.200,46.200 163.200 C 46.259 163.200,46.401 163.560,46.516 164.000 M49.120 163.680 C 49.789 164.349,49.719 164.666,48.900 164.673 C 48.227 164.679,47.619 164.128,47.606 163.500 C 47.597 163.030,48.588 163.148,49.120 163.680 M52.480 163.680 C 52.107 164.053,51.893 164.053,51.520 163.680 C 51.147 163.307,51.253 163.200,52.000 163.200 C 52.747 163.200,52.853 163.307,52.480 163.680 M69.900 165.476 C 69.515 165.576,68.885 165.576,68.500 165.476 C 68.115 165.375,68.430 165.293,69.200 165.293 C 69.970 165.293,70.285 165.375,69.900 165.476 M43.600 169.600 C 43.600 169.820,43.982 170.000,44.449 170.000 C 45.158 170.000,45.216 170.099,44.800 170.600 C 44.526 170.930,44.144 171.200,43.951 171.200 C 43.758 171.200,43.600 170.930,43.600 170.600 C 43.600 170.270,43.420 170.000,43.200 170.000 C 42.980 170.000,42.800 169.820,42.800 169.600 C 42.800 169.380,42.980 169.200,43.200 169.200 C 43.420 169.200,43.600 169.380,43.600 169.600 M54.200 172.800 C 54.064 173.020,53.558 173.197,53.076 173.194 C 52.364 173.189,52.312 173.115,52.800 172.800 C 53.588 172.291,54.515 172.291,54.200 172.800 M390.493 175.200 C 390.493 175.970,390.575 176.285,390.676 175.900 C 390.776 175.515,390.776 174.885,390.676 174.500 C 390.575 174.115,390.493 174.430,390.493 175.200 M31.630 177.443 C 32.864 178.770,38.922 183.874,41.699 185.926 C 44.287 187.837,54.699 194.800,54.970 194.800 C 55.077 194.800,56.028 195.307,57.082 195.926 C 59.381 197.275,65.177 199.790,67.818 200.585 C 71.141 201.585,73.531 201.670,85.600 201.211 C 92.090 200.965,101.990 200.598,107.600 200.396 C 125.343 199.757,131.600 199.478,131.600 199.328 C 131.600 198.524,127.986 192.333,126.705 190.944 C 124.160 188.182,123.861 188.101,110.000 186.400 C 108.350 186.198,105.650 185.852,104.000 185.632 C 90.975 183.895,88.052 183.576,87.000 183.774 C 86.245 183.915,86.001 183.870,86.341 183.650 C 86.694 183.423,85.926 183.206,84.141 183.027 C 82.633 182.875,80.320 182.592,79.000 182.396 C 77.680 182.201,75.070 181.846,73.200 181.608 C 71.330 181.369,68.471 180.983,66.847 180.749 C 64.595 180.426,63.823 180.439,63.597 180.805 C 63.397 181.128,62.858 181.187,61.950 180.986 C 60.805 180.732,60.721 180.644,61.400 180.402 C 61.955 180.205,61.466 180.035,59.800 179.847 C 58.480 179.699,56.230 179.412,54.800 179.210 C 53.370 179.008,50.715 178.653,48.900 178.421 C 40.814 177.389,38.868 177.123,36.833 176.773 C 35.642 176.568,33.765 176.400,32.664 176.400 L 30.661 176.400 31.630 177.443 M328.509 178.400 C 328.509 179.390,328.587 179.795,328.682 179.300 C 328.778 178.805,328.778 177.995,328.682 177.500 C 328.587 177.005,328.509 177.410,328.509 178.400 M239.331 180.600 C 239.333 182.140,239.405 182.721,239.492 181.891 C 239.579 181.061,239.577 179.801,239.489 179.091 C 239.400 178.381,239.329 179.060,239.331 180.600 M50.400 180.000 C 50.894 180.923,48.323 181.247,47.758 180.332 C 47.567 180.022,47.683 179.946,48.101 180.107 C 48.465 180.246,48.827 180.106,48.954 179.775 C 49.266 178.963,49.898 179.062,50.400 180.000 M53.200 180.000 C 53.200 180.469,52.893 180.469,51.800 180.000 C 51.091 179.695,51.125 179.653,52.100 179.628 C 52.705 179.613,53.200 179.780,53.200 180.000 M222.984 197.600 C 222.984 207.610,223.036 211.705,223.100 206.700 C 223.163 201.695,223.163 193.505,223.100 188.500 C 223.036 183.495,222.984 187.590,222.984 197.600 M56.800 181.024 C 56.800 181.341,56.620 181.600,56.400 181.600 C 56.180 181.600,56.000 181.229,56.000 180.776 C 56.000 180.323,56.180 180.064,56.400 180.200 C 56.620 180.336,56.800 180.707,56.800 181.024 M79.841 183.400 C 79.077 183.978,78.400 183.873,78.400 183.176 C 78.400 182.969,78.895 182.806,79.500 182.813 C 80.542 182.825,80.560 182.856,79.841 183.400 M239.351 188.400 C 239.351 190.930,239.416 191.965,239.496 190.700 C 239.575 189.435,239.575 187.365,239.496 186.100 C 239.416 184.835,239.351 185.870,239.351 188.400 M292.493 194.400 C 292.493 195.170,292.575 195.485,292.676 195.100 C 292.776 194.715,292.776 194.085,292.676 193.700 C 292.575 193.315,292.493 193.630,292.493 194.400 M239.360 200.600 C 239.361 203.900,239.422 205.197,239.498 203.482 C 239.573 201.767,239.572 199.067,239.497 197.482 C 239.421 195.897,239.359 197.300,239.360 200.600 M82.200 199.200 C 82.336 199.420,82.077 199.600,81.624 199.600 C 81.171 199.600,80.800 199.420,80.800 199.200 C 80.800 198.980,81.059 198.800,81.376 198.800 C 81.693 198.800,82.064 198.980,82.200 199.200 M126.800 204.106 C 126.690 204.211,122.820 204.413,118.200 204.556 C 113.580 204.699,106.110 204.984,101.600 205.189 C 80.902 206.130,74.174 206.425,65.621 206.763 C 53.532 207.242,53.593 207.126,62.852 211.917 C 76.446 218.950,88.035 221.895,95.000 220.085 C 95.880 219.856,97.590 219.465,98.800 219.215 C 100.010 218.965,101.720 218.593,102.600 218.388 C 103.480 218.183,109.870 216.838,116.800 215.400 C 123.730 213.962,130.120 212.614,131.000 212.406 C 131.880 212.198,133.640 211.812,134.911 211.548 C 136.182 211.284,137.171 210.962,137.108 210.834 C 134.175 204.825,133.649 204.333,129.902 204.098 C 128.306 203.998,126.910 204.002,126.800 204.106 M124.800 205.195 C 123.810 205.357,122.640 205.346,122.200 205.170 C 121.684 204.964,122.324 204.859,124.000 204.875 C 126.510 204.899,126.537 204.910,124.800 205.195 M96.707 207.086 C 96.106 207.177,95.026 207.179,94.307 207.090 C 93.588 207.001,94.080 206.926,95.400 206.924 C 96.720 206.922,97.308 206.995,96.707 207.086 M162.958 210.166 C 162.838 210.478,162.805 211.243,162.884 211.866 C 163.002 212.791,163.064 212.687,163.225 211.300 C 163.427 209.551,163.338 209.175,162.958 210.166 M239.314 214.200 C 239.317 215.300,239.395 215.703,239.487 215.095 C 239.579 214.486,239.577 213.586,239.482 213.095 C 239.387 212.603,239.311 213.100,239.314 214.200 M132.356 214.942 C 129.632 215.807,129.601 215.887,129.593 222.149 C 129.586 227.284,129.327 234.068,128.559 249.144 L 128.287 254.488 129.226 253.986 C 132.906 252.017,137.480 245.822,142.360 236.200 C 146.610 227.822,146.431 225.747,140.732 217.300 L 138.776 214.400 136.288 214.442 C 134.920 214.465,133.150 214.690,132.356 214.942 M138.105 215.082 C 137.614 215.177,136.714 215.179,136.105 215.087 C 135.497 214.995,135.900 214.917,137.000 214.914 C 138.100 214.911,138.597 214.987,138.105 215.082 M122.600 217.457 C 114.861 218.112,113.393 219.439,111.600 227.400 C 111.352 228.500,110.989 230.030,110.794 230.800 C 110.598 231.570,110.061 233.820,109.600 235.800 C 108.702 239.656,108.314 241.246,107.632 243.846 C 106.740 247.248,106.927 247.353,110.698 245.553 C 118.264 241.942,125.032 230.209,125.668 219.600 C 125.815 217.154,125.853 217.181,122.600 217.457 M106.401 221.495 C 100.642 222.569,97.052 226.180,93.492 234.478 C 91.617 238.849,91.617 238.961,93.486 238.610 C 98.634 237.645,105.710 230.924,108.043 224.785 C 109.342 221.365,109.151 220.982,106.401 221.495 M246.691 223.889 C 247.401 223.977,248.661 223.979,249.491 223.892 C 250.321 223.805,249.740 223.733,248.200 223.731 C 246.660 223.729,245.981 223.800,246.691 223.889 M223.900 230.296 C 225.275 230.374,227.525 230.374,228.900 230.296 C 230.275 230.218,229.150 230.154,226.400 230.154 C 223.650 230.154,222.525 230.218,223.900 230.296 M264.700 230.282 C 265.195 230.378,266.005 230.378,266.500 230.282 C 266.995 230.187,266.590 230.109,265.600 230.109 C 264.610 230.109,264.205 230.187,264.700 230.282 M178.500 230.676 C 178.885 230.776,179.515 230.776,179.900 230.676 C 180.285 230.575,179.970 230.493,179.200 230.493 C 178.430 230.493,178.115 230.575,178.500 230.676 M129.483 242.895 C 129.387 243.393,129.305 243.080,129.301 242.200 C 129.296 241.320,129.375 240.913,129.475 241.295 C 129.575 241.678,129.579 242.398,129.483 242.895 " stroke="none" fill="#a4acb1" fill-rule="evenodd"></path></g></svg>